# xmcd
#
# Track frame offsets: 
#        150
#        23149
#        36362
#        58335
#        86120
#        105890
#        150161
#        198496
#        218699
#        239728
#        255392
#        274627
#        293245
#        315402
#        340028
#
# Disc length: 4768 seconds
#
# Revision: 2
# Processed by: cddbd v1.5.2PL0 Copyright (c) Steve Scherf et al.
# Submitted via: ExactAudioCopy v1.0b3
#
DISCID=cc129e0f
DTITLE=Various Artist - Blues Paradise  vol.16
DYEAR=2002
DGENRE=Blues
TTITLE0=Trudy Lynn - Help Me Through The Day
TTITLE1=Innes Sibun - Little Wing
TTITLE2=Sy Kloops Blues Band - Good Morning Little School Girl
TTITLE3=Rob Tognoni Band - Crossword Blues
TTITLE4=Kim Lembo - A Fool No More
TTITLE5=Livin' Blues - Black Night
TTITLE6=Mick Taylor - Red House ( Goin Down Slow )
TTITLE7=Creedence Clearwater Revival - I Put A Spell On You
TTITLE8=The Beat Daddy's - I'll Always Love You
TTITLE9=Fred James - Read Between The Lies
TTITLE10=Mike Henderson and The Blue Bloods - So Sad To Be Lonesome
TTITLE11=Vargas Blues Band - Illegally
TTITLE12=Lazy Poker Blues Band And Jon McDonald - All Your Love
TTITLE13=Mick Martin and The Blues Pockers - House Of The Rising Su
TTITLE14=Cold Blue Steel - Month Of Sundays
EXTD=YEAR: 2002
EXTT0=
EXTT1=
EXTT2=
EXTT3=
EXTT4=
EXTT5=
EXTT6=
EXTT7=
EXTT8=
EXTT9=
EXTT10=
EXTT11=
EXTT12=
EXTT13=
EXTT14=
PLAYORDER=
